<svg width="100" height="100" viewBox="0 0 100 100" fill="none" xmlns="http://www.w3.org/2000/svg">
<rect width="100" height="100" fill="white"/>
<path d="M16 30H73V90C73 93.866 69.866 97 66 97H23C19.134 97 16 93.866 16 90V30Z" stroke="black" stroke-width="6"/>
<path d="M73 43C93 43 93 76 73 76" stroke="black" stroke-width="6"/>
<mask id="path-3-inside-1_100_6" fill="white">
<path fill-rule="evenodd" clip-rule="evenodd" d="M85 20.5C85 26.1886 81.2 30.9897 76 32.5034V33H72.5H38V46.5C38 51.1944 34.1944 55 29.5 55C24.8056 55 21 51.1944 21 46.5V33H16H13V32.6655C7.2666 31.3633 3 26.4107 3 20.5C3 13.5964 8.8203 8 16 8C18.3028 8 20.4657 8.5757 22.3416 9.58558C23.6546 4.08772 28.5999 0 34.5 0C39.7503 0 44.2446 3.23696 46.0961 7.82407C47.816 4.37175 51.381 2 55.5 2C60.4404 2 64.5838 5.41197 65.7025 10.008C67.6591 8.73779 69.9934 8 72.5 8C79.4036 8 85 13.5964 85 20.5Z"/>
</mask>
<path fill-rule="evenodd" clip-rule="evenodd" d="M85 20.5C85 26.1886 81.2 30.9897 76 32.5034V33H72.5H38V46.5C38 51.1944 34.1944 55 29.5 55C24.8056 55 21 51.1944 21 46.5V33H16H13V32.6655C7.2666 31.3633 3 26.4107 3 20.5C3 13.5964 8.8203 8 16 8C18.3028 8 20.4657 8.5757 22.3416 9.58558C23.6546 4.08772 28.5999 0 34.5 0C39.7503 0 44.2446 3.23696 46.0961 7.82407C47.816 4.37175 51.381 2 55.5 2C60.4404 2 64.5838 5.41197 65.7025 10.008C67.6591 8.73779 69.9934 8 72.5 8C79.4036 8 85 13.5964 85 20.5Z" fill="white"/>
<path d="M76 32.5034L74.3231 26.7425C71.7615 27.4881 70 29.8355 70 32.5034H76ZM76 33V39C79.3137 39 82 36.3137 82 33H76ZM38 33V27C34.6863 27 32 29.6863 32 33H38ZM21 33H27C27 29.6863 24.3137 27 21 27V33ZM13 33H7C7 36.3137 9.68629 39 13 39V33ZM13 32.6655H19C19 29.8638 17.0611 27.4351 14.3289 26.8145L13 32.6655ZM22.3416 9.58558L19.4974 14.8687C21.1377 15.7517 23.095 15.8228 24.795 15.061C26.495 14.2993 27.7447 12.7912 28.1774 10.9793L22.3416 9.58558ZM46.0961 7.82407L40.5322 10.0698C41.4158 12.2591 43.5013 13.7267 45.8604 13.8194C48.2195 13.9122 50.4137 12.6128 51.4665 10.4996L46.0961 7.82407ZM65.7025 10.008L59.8727 11.427C60.3327 13.3167 61.68 14.8663 63.4875 15.5842C65.295 16.3022 67.3384 16.0996 68.9696 15.0405L65.7025 10.008ZM77.6769 38.2643C85.3692 36.0251 91 28.9279 91 20.5H79C79 23.4493 77.0309 25.9543 74.3231 26.7425L77.6769 38.2643ZM82 33V32.5034H70V33H82ZM72.5 39H76V27H72.5V39ZM38 39H72.5V27H38V39ZM32 33V46.5H44V33H32ZM32 46.5C32 47.8807 30.8807 49 29.5 49V61C37.5081 61 44 54.5081 44 46.5H32ZM29.5 49C28.1193 49 27 47.8807 27 46.5H15C15 54.5081 21.4919 61 29.5 61V49ZM27 46.5V33H15V46.5H27ZM16 39H21V27H16V39ZM13 39H16V27H13V39ZM7 32.6655V33H19V32.6655H7ZM-3 20.5C-3 29.4252 3.41859 36.6421 11.6711 38.5165L14.3289 26.8145C11.1146 26.0845 9 23.3963 9 20.5H-3ZM16 2C5.73056 2 -3 10.0631 -3 20.5H9C9 17.1298 11.91 14 16 14V2ZM25.1857 4.30249C22.4498 2.82965 19.3115 2 16 2V14C17.2941 14 18.4815 14.3217 19.4974 14.8687L25.1857 4.30249ZM34.5 -6C25.76 -6 18.449 0.0549357 16.5057 8.19183L28.1774 10.9793C28.8602 8.1205 31.4398 6 34.5 6V-6ZM51.6599 5.57836C48.9242 -1.19956 42.2799 -6 34.5 -6V6C37.2207 6 39.565 7.67347 40.5322 10.0698L51.6599 5.57836ZM55.5 -4C49.0185 -4 43.4211 -0.261944 40.7256 5.14855L51.4665 10.4996C52.2109 9.00543 53.7435 8 55.5 8V-4ZM71.5323 8.58907C69.7744 1.36694 63.2714 -4 55.5 -4V8C57.6094 8 59.3932 9.457 59.8727 11.427L71.5323 8.58907ZM72.5 2C68.7991 2 65.3352 3.09298 62.4354 4.97556L68.9696 15.0405C69.9831 14.3826 71.1877 14 72.5 14V2ZM91 20.5C91 10.2827 82.7173 2 72.5 2V14C76.0899 14 79 16.9102 79 20.5H91Z" fill="black" mask="url(#path-3-inside-1_100_6)"/>
<path d="M45 43V85" stroke="black" stroke-width="6" stroke-linecap="round"/>
<path d="M30 62V85" stroke="black" stroke-width="6" stroke-linecap="round"/>
<path d="M60 43V85" stroke="black" stroke-width="6" stroke-linecap="round"/>
</svg>
