<svg width="100" height="100" viewBox="0 0 100 100" fill="none" xmlns="http://www.w3.org/2000/svg">
<rect width="100" height="100" fill="white"/>
<path d="M23 97L41 89.5L59 97H23Z" stroke="black" stroke-width="6" stroke-linejoin="round"/>
<path d="M41 89.5V60" stroke="black" stroke-width="6"/>
<path d="M10 25V22C8.34315 22 7 23.3431 7 25H10ZM73 25H76C76 23.3431 74.6569 22 73 22V25ZM32 51H35C35 49.3431 33.6569 48 32 48V51ZM50 51V48C48.3431 48 47 49.3431 47 51H50ZM10 28H73V22H10V28ZM13 33V25H7V33H13ZM28 48C19.7157 48 13 41.2843 13 33H7C7 44.598 16.402 54 28 54V48ZM32 48H28V54H32V48ZM35 56V51H29V56H35ZM37 58C35.8954 58 35 57.1046 35 56H29C29 60.4183 32.5817 64 37 64V58ZM45 58H37V64H45V58ZM47 56C47 57.1046 46.1046 58 45 58V64C49.4183 64 53 60.4183 53 56H47ZM47 51V56H53V51H47ZM55 48H50V54H55V48ZM70 33C70 41.2843 63.2843 48 55 48V54C66.598 54 76 44.598 76 33H70ZM70 25V33H76V25H70Z" fill="black"/>
<path d="M73 40C75.9667 40 78.8668 39.1203 81.3336 37.472C83.8003 35.8238 85.7229 33.4811 86.8582 30.7403C87.9935 27.9994 88.2906 24.9834 87.7118 22.0736C87.133 19.1639 85.7044 16.4912 83.6066 14.3934C81.5088 12.2956 78.8361 10.867 75.9264 10.2882C73.0166 9.70944 70.0006 10.0065 67.2598 11.1418C64.5189 12.2771 62.1762 14.1997 60.528 16.6664C58.8797 19.1332 58 22.0333 58 25L73 25L73 40Z" stroke="black" stroke-width="6"/>
<path d="M16 31H67V31C67 38.732 60.732 45 53 45H30C22.268 45 16 38.732 16 31V31Z" fill="black"/>
<path d="M22 34.5C23.7952 38.3047 25.3755 39.289 29 41" stroke="white" stroke-width="3" stroke-linecap="round"/>
</svg>
